<svg width="23" height="20" viewBox="0 0 23 20" fill="none" xmlns="http://www.w3.org/2000/svg">
<path d="M2.35 16.4509C1.603 16.4509 1 15.8816 1 15.1763V6.27457C1 5.56931 1.603 5 2.35 5H17.65C18.397 5 19 5.56931 19 6.27457V15.1763C19 15.8816 18.397 16.4509 17.65 16.4509H8.65L5.05 19V16.4509H2.35Z" stroke="white" stroke-width="0.8" stroke-linecap="round" stroke-linejoin="round"/>
<path d="M4 9.24902V12.1861" stroke="white" stroke-width="0.8" stroke-linecap="round" stroke-linejoin="round"/>
<path d="M5.80077 9.24902V12.1861" stroke="white" stroke-width="0.8" stroke-linecap="round" stroke-linejoin="round"/>
<path d="M4 10.8801H5.80066" stroke="white" stroke-width="0.8" stroke-linecap="round" stroke-linejoin="round"/>
<path d="M9.40222 9.24902H7.60156V12.1861H9.40222" stroke="white" stroke-width="0.8" stroke-linecap="round" stroke-linejoin="round"/>
<path d="M7.60156 10.8801H8.95205" stroke="white" stroke-width="0.8" stroke-linecap="round" stroke-linejoin="round"/>
<path d="M11.2026 9.24902V12.1861H13.0033" stroke="white" stroke-width="0.8" stroke-linecap="round" stroke-linejoin="round"/>
<path d="M14.8037 10.8807H15.704C16.1542 10.8807 16.6044 10.8807 16.6044 10.0714C16.6044 9.26208 16.1542 9.24902 15.704 9.24902H14.8037V12.1861" stroke="white" stroke-width="0.8" stroke-linecap="round" stroke-linejoin="round"/>
<path d="M4 4.42857V2.28571C4 1.57429 4.57429 1 5.28571 1H20.7143C21.4257 1 22 1.57429 22 2.28571V11.7143C22 12.4257 21.4257 13 20.7143 13H19.4286" stroke="white" stroke-width="0.8" stroke-linecap="round" stroke-linejoin="round"/>
</svg>
