<svg width="106" height="24" viewBox="0 0 106 24" fill="none" xmlns="http://www.w3.org/2000/svg">
<rect x="3.47168" y="0.244873" width="99.1788" height="23" transform="rotate(0.0479082 3.47168 0.244873)" fill="#0591CD"/>
<rect width="4.99758" height="4.99758" transform="matrix(0.653727 -0.756731 0.65246 0.757823 99.1846 19.4387)" fill="#0591CD"/>
<rect width="4.99758" height="4.99758" transform="matrix(0.653727 -0.756731 0.65246 0.757823 99.1914 11.7551)" fill="#0591CD"/>
<rect width="4.99758" height="4.99758" transform="matrix(0.653727 -0.756731 0.65246 0.757823 99.1978 4.10962)" fill="#0591CD"/>
<rect width="4.99758" height="4.99758" transform="matrix(0.653727 -0.756731 0.65246 0.757823 0.00585938 19.3564)" fill="#0591CD"/>
<rect width="4.99758" height="4.99758" transform="matrix(0.653727 -0.756731 0.65246 0.757823 0.0126953 11.6729)" fill="#0591CD"/>
<rect width="4.99758" height="4.99758" transform="matrix(0.653727 -0.756731 0.65246 0.757823 0.019043 4.02734)" fill="#0591CD"/>
<path d="M29.6799 16.4097L29.6818 14.1431C29.6822 13.5908 29.2349 13.1427 28.6826 13.1423L27.416 13.1412C26.8637 13.1408 26.4156 13.5881 26.4152 14.1404L26.4133 16.407" stroke="white" stroke-width="0.8" stroke-linecap="round" stroke-linejoin="round"/>
<path d="M24.7842 11.5081L24.7818 14.4079C24.781 15.3507 24.7806 15.8221 25.0732 16.1153C25.3659 16.4084 25.8373 16.4088 26.7801 16.4096L29.3132 16.4117C30.256 16.4125 30.7274 16.4129 31.0206 16.1202C31.3137 15.8276 31.3141 15.3562 31.3149 14.4134L31.3173 11.5135" stroke="white" stroke-width="0.8"/>
<path d="M23.8695 9.35617C24.0083 8.94087 24.0777 8.73323 24.2095 8.58233C24.3104 8.46685 24.4365 8.37612 24.5781 8.31716C24.7631 8.24012 24.982 8.2403 25.4199 8.24066L30.6875 8.24507C31.1253 8.24543 31.3443 8.24562 31.5291 8.32297C31.6706 8.38217 31.7965 8.47311 31.8972 8.58876C32.0288 8.73987 32.0979 8.94764 32.236 9.36316L32.6322 10.5552C32.789 11.0267 32.4377 11.5131 31.9409 11.5127L31.7531 11.5125C31.1805 11.5121 30.685 11.114 30.5613 10.5549V10.5549C30.5472 10.4911 30.4563 10.491 30.442 10.5548L30.4361 10.5814C30.3149 11.1247 29.8326 11.5109 29.2759 11.5105V11.5105C28.7192 11.51 28.2376 11.123 28.1173 10.5794L28.1114 10.5529C28.0973 10.4891 28.0063 10.489 27.9921 10.5528L27.9862 10.5793C27.865 11.1226 27.3827 11.5089 26.826 11.5084V11.5084C26.2693 11.508 25.7876 11.1209 25.6673 10.5774L25.6614 10.5508C25.6473 10.487 25.5564 10.4869 25.5422 10.5507V10.5507C25.4175 11.1096 24.9214 11.5068 24.3488 11.5063L24.161 11.5062C23.6642 11.5058 23.3137 11.0187 23.4712 10.5475L23.8695 9.35617Z" stroke="white" stroke-width="0.8"/>
<path d="M44.4145 12.2994C44.3995 11.7294 44.3095 11.1594 44.0245 10.6494C44.8795 10.2594 44.9095 9.28439 44.8345 8.95439H43.4095C43.4395 9.19439 43.4545 9.56939 43.3045 9.88439C42.7945 9.52439 42.0595 9.31439 41.0095 9.31439C39.7345 9.31439 38.8945 9.79439 38.2795 10.3494L39.1495 11.2494C39.5995 10.8894 40.3345 10.6494 41.0095 10.6494C41.6095 10.6494 42.9445 10.7694 42.9445 12.1344V12.7194C42.5245 12.0894 41.6395 11.7594 40.9045 11.6994C39.3445 11.6244 38.2345 12.5244 38.2345 13.9344C38.2345 16.2594 40.5745 16.3044 41.9245 15.7944L41.3395 14.6844C40.9795 14.8194 39.7645 14.9844 39.7645 13.9194C39.7645 13.3644 40.2595 12.8094 41.3245 13.0344C42.3295 13.2294 42.8695 13.9044 42.8695 14.9094V16.0044H44.4145V12.2994ZM51.0052 10.2444C50.2102 9.50939 49.4902 9.31439 48.3802 9.31439C47.2252 9.31439 45.7102 9.86939 45.7102 11.2044C45.7102 12.7044 47.1052 12.9744 48.2902 13.1844C48.8152 13.2744 49.6402 13.4394 49.6402 14.0544C49.6402 14.6544 48.8002 14.7294 48.3352 14.7294C47.6602 14.7294 46.8352 14.4444 46.3402 13.9044L45.5002 14.7744C46.1302 15.7044 47.3152 16.0644 48.3352 16.0644C49.5652 16.0644 51.0652 15.5094 51.0652 14.0544C51.0652 12.6294 49.8202 12.1644 48.5302 11.9394C48.0502 11.8644 47.1652 11.7144 47.1652 11.2044C47.1652 10.6644 47.9752 10.5894 48.3952 10.5894C48.9952 10.5894 49.6402 10.6944 50.1202 11.0394L51.0052 10.2444ZM46.2741 7.22939H47.1891L46.8591 8.44439H51.2241V7.27439H48.3441L48.5841 6.46439V6.11939H46.2741V7.22939ZM56.8041 16.0044V12.1794C56.8041 10.8144 56.3091 9.31439 54.0441 9.31439C53.1441 9.31439 52.2741 9.79439 51.6891 10.3944L52.4991 11.2494C52.9341 10.8444 53.4891 10.6344 53.9841 10.6344C54.4191 10.6344 55.2591 10.7244 55.2591 12.1344V16.0044H56.8041ZM60.5777 9.31439C60.0677 9.31439 59.5127 9.41939 59.0777 9.58439L59.7227 10.8444C59.9777 10.7094 60.2927 10.6494 60.5777 10.6494C62.0927 10.6494 62.2577 11.8794 62.2577 12.7494C62.2577 14.1894 61.5677 14.6394 60.5927 14.6844L59.2877 12.1644H57.7127L59.7077 16.0044H60.4427C62.7827 16.0044 63.7877 14.4294 63.7877 12.7494C63.7877 11.2194 63.2027 9.31439 60.5777 9.31439ZM65.0507 9.34439V13.9794C65.0507 15.6294 66.0107 16.0344 66.7457 16.0344C67.2857 16.0344 67.8257 15.9144 68.1407 15.6144L67.6307 14.6394C67.4507 14.7894 66.5957 15.1194 66.5957 14.0544V9.34439H65.0507ZM74.0607 16.0644C76.2507 16.0644 76.3407 14.3694 76.3407 13.0794V9.34439H74.7957V13.1094C74.7957 14.1294 74.7807 14.7744 74.0607 14.7744C73.2507 14.7744 73.2357 14.2194 73.2357 13.1244V9.97439H71.8707V13.1094C71.8707 14.1294 71.9157 14.7744 71.0457 14.7744C70.3257 14.7744 70.3107 14.1294 70.3107 13.1094V9.34439H68.7657V13.0794C68.7657 14.3694 68.8557 16.0644 71.0457 16.0644C71.8407 16.0644 72.2907 15.8244 72.5457 15.1344C72.8007 15.8244 73.2657 16.0644 74.0607 16.0644ZM80.1338 9.31439C78.8588 9.31439 77.9587 9.80939 77.3588 10.3644L78.2138 11.2944C78.6788 10.9044 79.4438 10.6494 80.1338 10.6494C81.4088 10.6494 82.0988 11.5044 82.0988 12.7044C82.0988 13.9794 81.2588 14.8344 80.1338 14.7594V12.6744H77.7488V13.8744H78.6788V15.7944C79.1737 16.0044 79.6688 16.0644 80.1338 16.0644C82.2488 16.0644 83.6138 14.7144 83.6138 12.7044C83.6138 10.5444 82.0538 9.31439 80.1338 9.31439Z" fill="white"/>
</svg>
