<svg width="19" height="19" viewBox="0 0 19 19" fill="none" xmlns="http://www.w3.org/2000/svg">
<path d="M9.05 18.9301C14.0482 18.9301 18.1 14.8783 18.1 9.88008C18.1 4.8819 14.0482 0.830078 9.05 0.830078C4.05183 0.830078 0 4.8819 0 9.88008C0 14.8783 4.05183 18.9301 9.05 18.9301Z" fill="white"/>
<path d="M12.8599 7.81014C12.8099 7.30014 12.6099 6.85014 12.2299 6.49014C11.8299 6.11014 11.3399 5.94014 10.8099 5.91014C9.89991 5.86014 7.72992 5.83014 6.96992 5.95014C6.09992 6.09014 5.52992 6.60014 5.28992 7.46014C5.10992 8.12014 5.13991 11.1601 5.24991 11.8201C5.39991 12.7101 5.91991 13.2801 6.80991 13.5101C7.41991 13.6701 10.4299 13.6501 11.0999 13.5401C11.9899 13.4001 12.5699 12.8701 12.7999 11.9901C12.9799 11.3101 12.9199 8.43014 12.8499 7.82014L12.8599 7.81014ZM12.1499 11.6901C12.0499 12.3701 11.5999 12.7901 10.9199 12.8601C10.2899 12.9301 7.49991 12.9701 6.91991 12.8001C6.35991 12.6501 6.04992 12.2601 5.94992 11.7001C5.85992 11.1701 5.83992 8.50014 5.94992 7.78014C6.04992 7.11014 6.49992 6.69014 7.17992 6.61014C7.86992 6.53014 10.3399 6.52014 10.9999 6.63014C11.6799 6.73014 12.0999 7.18014 12.1699 7.87014C12.2399 8.51014 12.2599 11.0001 12.1499 11.6801V11.6901ZM9.04992 7.76014C7.94992 7.76014 7.05991 8.65014 7.05991 9.75014C7.05991 10.8501 7.94992 11.7301 9.03992 11.7401C10.1399 11.7401 11.0299 10.8501 11.0299 9.75014C11.0299 8.65014 10.1399 7.76014 9.03992 7.76014H9.04992ZM9.03992 11.0401C8.33992 11.0401 7.76992 10.4601 7.76992 9.75014C7.76992 9.04014 8.34991 8.47014 9.05991 8.47014C9.76991 8.47014 10.3399 9.05014 10.3399 9.76014C10.3399 10.4701 9.75992 11.0401 9.03992 11.0401ZM11.5899 7.69014C11.5899 7.95014 11.3799 8.15014 11.1199 8.15014C10.8599 8.15014 10.6599 7.95014 10.6499 7.69014C10.6499 7.43014 10.8599 7.22014 11.1199 7.22014C11.3799 7.22014 11.5799 7.43014 11.5799 7.69014H11.5899Z" fill="url(#paint0_linear_254_6933)"/>
<defs>
<linearGradient id="paint0_linear_254_6933" x1="11.8899" y1="6.41014" x2="5.17992" y2="14.2601" gradientUnits="userSpaceOnUse">
<stop offset="0.01" stop-color="#3542E0"/>
<stop offset="0.17" stop-color="#3741DE"/>
<stop offset="0.27" stop-color="#3F3FDA"/>
<stop offset="0.36" stop-color="#4E3CD2"/>
<stop offset="0.43" stop-color="#6237C7"/>
<stop offset="0.5" stop-color="#7D31B9"/>
<stop offset="0.56" stop-color="#9D29A7"/>
<stop offset="0.62" stop-color="#C82091"/>
<stop offset="0.76" stop-color="#F62B37"/>
<stop offset="1" stop-color="#FFC658"/>
</linearGradient>
</defs>
</svg>
