<svg width="19" height="19" viewBox="0 0 19 19" fill="none" xmlns="http://www.w3.org/2000/svg">
<path d="M9.05 18.1C14.0482 18.1 18.1 14.0482 18.1 9.05C18.1 4.05182 14.0482 0 9.05 0C4.05182 0 0 4.05182 0 9.05C0 14.0482 4.05182 18.1 9.05 18.1Z" fill="white"/>
<path fill-rule="evenodd" clip-rule="evenodd" d="M5.49007 12.14C5.17007 12.04 4.96007 11.83 4.85007 11.52C4.57007 10.76 4.49007 7.56995 5.02007 6.93995C5.20007 6.72995 5.44007 6.59996 5.72007 6.56996C7.16007 6.40996 11.6101 6.43995 12.1201 6.61995C12.4201 6.72995 12.6301 6.91995 12.7501 7.22995C13.0501 8.01995 13.0601 10.89 12.7101 11.65C12.6101 11.86 12.4601 12 12.2601 12.11C11.7201 12.39 6.20007 12.39 5.49007 12.16V12.14ZM7.78007 10.64C8.65007 10.19 9.50007 9.74996 10.3701 9.29996C9.50007 8.84996 8.64007 8.39995 7.78007 7.94995V10.65V10.64Z" fill="#FD3832"/>
</svg>
