<svg width="19" height="19" viewBox="0 0 19 19" fill="none" xmlns="http://www.w3.org/2000/svg">
<path d="M9.05 18.4301C14.0482 18.4301 18.1 14.3783 18.1 9.38008C18.1 4.3819 14.0482 0.330078 9.05 0.330078C4.05182 0.330078 0 4.3819 0 9.38008C0 14.3783 4.05182 18.4301 9.05 18.4301Z" fill="white"/>
<path fill-rule="evenodd" clip-rule="evenodd" d="M10.0499 6.89003C10.2999 6.89003 10.5499 6.89003 10.7999 6.89003H10.8999V5.59003C10.7699 5.58003 10.6299 5.56003 10.4899 5.55003C10.2299 5.54003 9.97994 5.53003 9.71994 5.53003C9.32994 5.53003 8.95994 5.63003 8.62994 5.87003C8.25994 6.14003 8.04994 6.51003 7.97994 6.96003C7.94994 7.14003 7.93994 7.33003 7.92994 7.52003C7.92994 7.81003 7.92994 8.10003 7.92994 8.40003V8.51003H6.68994V9.96003H7.92994V13.61H9.43994V9.96003H10.6699C10.7299 9.48003 10.7899 9.00003 10.8599 8.50003H10.5799C10.2299 8.50003 9.41994 8.50003 9.41994 8.50003C9.41994 8.50003 9.41994 7.78003 9.42994 7.47003C9.43994 7.04003 9.69994 6.91003 10.0399 6.90003L10.0499 6.89003Z" fill="#1E4FAD"/>
</svg>
