<svg width="19" height="19" viewBox="0 0 19 19" fill="none" xmlns="http://www.w3.org/2000/svg">
<path d="M9.05 18.4301C14.0482 18.4301 18.1 14.3783 18.1 9.38008C18.1 4.3819 14.0482 0.330078 9.05 0.330078C4.05182 0.330078 0 4.3819 0 9.38008C0 14.3783 4.05182 18.4301 9.05 18.4301Z" fill="white"/>
<path fill-rule="evenodd" clip-rule="evenodd" d="M7.62006 11.6C6.82006 11.57 6.32006 11 6.19006 10.53C6.41006 10.57 6.63006 10.56 6.85006 10.51C6.85006 10.51 6.86006 10.51 6.87006 10.51C6.44006 10.41 6.10006 10.18 5.87006 9.80003C5.72006 9.55003 5.64006 9.28002 5.65006 8.98002C5.87006 9.10002 6.09006 9.16003 6.33006 9.17003C6.01006 8.94003 5.79006 8.63002 5.70006 8.24002C5.61006 7.85002 5.67006 7.48003 5.86006 7.13003C6.69006 8.11003 7.74006 8.65002 9.03006 8.73002C9.03006 8.67002 9.01006 8.62003 9.01006 8.56003C8.97006 8.20003 9.04006 7.86003 9.23006 7.56003C9.47006 7.18003 9.82006 6.94003 10.2701 6.87003C10.7901 6.79003 11.2401 6.93003 11.6101 7.30003C11.6401 7.32003 11.6601 7.33003 11.6901 7.32003C12.0101 7.25003 12.3001 7.14003 12.5801 6.98003C12.5801 6.98003 12.5901 6.98002 12.6001 6.97002C12.6001 6.97002 12.6001 6.97002 12.6101 6.97002C12.4901 7.33002 12.2701 7.60003 11.9501 7.81003C12.2501 7.78003 12.5301 7.70003 12.8101 7.58003C12.7501 7.66003 12.6901 7.74003 12.6301 7.81003C12.4701 8.01003 12.2801 8.19003 12.0701 8.34003C12.0501 8.35003 12.0401 8.37003 12.0401 8.39003C12.0401 8.62003 12.0401 8.85002 12.0101 9.07002C11.9501 9.55002 11.8201 10 11.6101 10.44C11.4001 10.89 11.1201 11.29 10.7801 11.65C10.1901 12.25 9.49006 12.64 8.67006 12.83C8.39006 12.89 8.10006 12.92 7.81006 12.93C6.92006 12.96 6.11006 12.74 5.35006 12.27C5.35006 12.27 5.33006 12.26 5.31006 12.25C5.85006 12.31 6.36006 12.24 6.85006 12.04C7.11006 11.93 7.35006 11.79 7.58006 11.61L7.62006 11.6Z" fill="#1BA5D4"/>
</svg>
