<svg width="23" height="24" viewBox="0 0 23 24" fill="none" xmlns="http://www.w3.org/2000/svg">
<path d="M18.6875 12C18.6875 16.982 13.503 20.3541 11.9405 21.2572C11.6652 21.4163 11.3348 21.4163 11.0595 21.2572C9.49702 20.3541 4.3125 16.982 4.3125 12C4.3125 7.5 7.79509 4.5 11.5 4.5C15.3333 4.5 18.6875 7.5 18.6875 12Z" stroke="white"/>
<path d="M14.8334 12C14.8334 13.9533 13.3211 15.5 11.5 15.5C9.67891 15.5 8.16669 13.9533 8.16669 12C8.16669 10.0467 9.67891 8.5 11.5 8.5C13.3211 8.5 14.8334 10.0467 14.8334 12Z" stroke="white"/>
</svg>
