<svg width="12" height="12" viewBox="0 0 12 12" fill="none" xmlns="http://www.w3.org/2000/svg">
<path fill-rule="evenodd" clip-rule="evenodd" d="M4.96157 6.54764C4.4222 6.0112 3.71121 5.75446 3.00819 5.77704C2.88116 5.78112 2.77488 5.68146 2.77079 5.55443C2.76671 5.4274 2.86638 5.32112 2.99341 5.31704C3.81831 5.29053 4.65366 5.59215 5.28636 6.22154L5.28678 6.22196C6.49658 7.43176 6.49658 9.39083 5.28678 10.6006C4.07698 11.8104 2.11791 11.8104 0.908116 10.6006C0.305113 9.99763 0 9.20516 0 8.41283C0 7.74202 0.233672 7.0853 0.662193 6.53482C0.740263 6.43453 0.884851 6.41652 0.985139 6.49458C1.08543 6.57265 1.10344 6.71724 1.02537 6.81753C0.656135 7.29186 0.460245 7.85018 0.460245 8.41283C0.460245 9.08715 0.719699 9.76133 1.23356 10.2752C2.26362 11.3053 3.93128 11.3053 4.96134 10.2752C5.99132 9.2452 5.9914 7.57772 4.96157 6.54764Z" fill="white"/>
<path fill-rule="evenodd" clip-rule="evenodd" d="M3.29851 7.51664C2.74751 7.51664 2.30131 7.96284 2.30131 8.51384C2.30131 9.06484 2.74751 9.51104 3.29851 9.51104H3.91217C4.03926 9.51104 4.14229 9.61407 4.14229 9.74116C4.14229 9.86825 4.03926 9.97128 3.91217 9.97128H3.29851C2.49332 9.97128 1.84106 9.31903 1.84106 8.51384C1.84106 7.70865 2.49332 7.0564 3.29851 7.0564H3.91217C4.03926 7.0564 4.14229 7.15943 4.14229 7.28652C4.14229 7.41361 4.03926 7.51664 3.91217 7.51664H3.29851Z" fill="white"/>
<path fill-rule="evenodd" clip-rule="evenodd" d="M1.22729 8.51357C1.22729 8.38648 1.33032 8.28345 1.45742 8.28345H2.99157C3.11866 8.28345 3.22169 8.38648 3.22169 8.51357C3.22169 8.64066 3.11866 8.74369 2.99157 8.74369H1.45742C1.33032 8.74369 1.22729 8.64066 1.22729 8.51357Z" fill="white"/>
<path fill-rule="evenodd" clip-rule="evenodd" d="M4.38174 3.13478C4.47161 3.22465 4.47161 3.37036 4.38174 3.46023L1.00661 6.83536C0.916745 6.92523 0.771039 6.92523 0.681171 6.83536C0.591302 6.74549 0.591302 6.59978 0.681171 6.50991L4.0563 3.13478C4.14617 3.04492 4.29188 3.04492 4.38174 3.13478Z" fill="white"/>
<path fill-rule="evenodd" clip-rule="evenodd" d="M2.76147 3.29751C2.76147 3.17041 2.8645 3.06738 2.9916 3.06738H4.21892C4.34601 3.06738 4.44904 3.17041 4.44904 3.29751V4.52483C4.44904 4.65192 4.34601 4.75495 4.21892 4.75495C4.09182 4.75495 3.98879 4.65192 3.98879 4.52483V3.52763H2.9916C2.8645 3.52763 2.76147 3.4246 2.76147 3.29751Z" fill="white"/>
<path fill-rule="evenodd" clip-rule="evenodd" d="M10.2725 1.23257C9.24552 0.202804 7.57514 0.202804 6.5482 1.23257L6.54798 1.23279C5.51792 2.26285 5.51792 3.93051 6.54798 4.96057C7.05298 5.46558 7.71284 5.72236 8.37645 5.73084C8.50354 5.73246 8.60524 5.8368 8.60362 5.96388C8.602 6.09096 8.49766 6.19267 8.37058 6.19104C7.59208 6.18111 6.81598 5.87946 6.22253 5.28602C5.01274 4.07622 5.01274 2.11715 6.22253 0.907349C7.4293 -0.302487 9.39153 -0.30245 10.5982 0.90746C11.2113 1.52055 11.5131 2.32643 11.5032 3.12846C11.4964 3.7894 11.2627 4.43266 10.8412 4.97593C10.7633 5.07635 10.6188 5.0946 10.5183 5.0167C10.4179 4.9388 10.3997 4.79424 10.4776 4.69382C10.8415 4.22463 11.0374 3.67751 11.0429 3.12351L11.043 3.12298C11.0514 2.44007 10.7948 1.75491 10.2727 1.23279L10.2725 1.23257Z" fill="white"/>
<path fill-rule="evenodd" clip-rule="evenodd" d="M8.20755 1.9932C7.99713 1.9932 7.82401 2.16632 7.82401 2.37674C7.82401 2.58716 7.99713 2.76028 8.20755 2.76028H8.82121C9.28582 2.76028 9.66499 3.13946 9.66499 3.60406C9.66499 4.06867 9.28582 4.44784 8.82121 4.44784H7.59389C7.4668 4.44784 7.36377 4.34482 7.36377 4.21772C7.36377 4.09063 7.4668 3.9876 7.59389 3.9876H8.82121C9.03163 3.9876 9.20475 3.81448 9.20475 3.60406C9.20475 3.39364 9.03163 3.22052 8.82121 3.22052H8.20755C7.74295 3.22052 7.36377 2.84135 7.36377 2.37674C7.36377 1.91214 7.74295 1.53296 8.20755 1.53296H9.43487C9.56197 1.53296 9.66499 1.63599 9.66499 1.76308C9.66499 1.89017 9.56197 1.9932 9.43487 1.9932H8.20755Z" fill="white"/>
<path fill-rule="evenodd" clip-rule="evenodd" d="M8.5143 0.919678C8.6414 0.919678 8.74442 1.02271 8.74442 1.1498V1.76346C8.74442 1.89055 8.6414 1.99358 8.5143 1.99358C8.38721 1.99358 8.28418 1.89055 8.28418 1.76346V1.1498C8.28418 1.02271 8.38721 0.919678 8.5143 0.919678Z" fill="white"/>
<path fill-rule="evenodd" clip-rule="evenodd" d="M8.5143 3.98804C8.6414 3.98804 8.74442 4.09107 8.74442 4.21816V4.83182C8.74442 4.95891 8.6414 5.06194 8.5143 5.06194C8.38721 5.06194 8.28418 4.95891 8.28418 4.83182V4.21816C8.28418 4.09107 8.38721 3.98804 8.5143 3.98804Z" fill="white"/>
<path fill-rule="evenodd" clip-rule="evenodd" d="M10.8251 4.66896C10.915 4.75883 10.915 4.90454 10.8251 4.99441L7.44997 8.36954C7.3601 8.45941 7.2144 8.45941 7.12453 8.36954C7.03466 8.27967 7.03466 8.13396 7.12453 8.04409L10.4997 4.66896C10.5895 4.5791 10.7352 4.5791 10.8251 4.66896Z" fill="white"/>
<path fill-rule="evenodd" clip-rule="evenodd" d="M7.28725 6.74927C7.41434 6.74927 7.51737 6.8523 7.51737 6.97939V7.97659H8.51457C8.64166 7.97659 8.74469 8.07962 8.74469 8.20671C8.74469 8.3338 8.64166 8.43683 8.51457 8.43683H7.28725C7.16016 8.43683 7.05713 8.3338 7.05713 8.20671V6.97939C7.05713 6.8523 7.16016 6.74927 7.28725 6.74927Z" fill="white"/>
</svg>
