<svg width="154" height="27" viewBox="0 0 154 27" fill="none" xmlns="http://www.w3.org/2000/svg">
<rect x="4.40283" y="0.738525" width="146.197" height="23" transform="rotate(1.21075 4.40283 0.738525)" fill="#1FF00D"/>
<rect width="5.11205" height="5.11205" transform="matrix(0.687747 -0.72595 0.656461 0.75436 146.532 22.8613)" fill="#1FF00D"/>
<rect width="5.11205" height="5.11205" transform="matrix(0.687747 -0.72595 0.656461 0.75436 146.695 15.1797)" fill="#1FF00D"/>
<rect width="5.11205" height="5.11205" transform="matrix(0.687747 -0.72595 0.656461 0.75436 146.856 7.53613)" fill="#1FF00D"/>
<rect width="5.11205" height="5.11205" transform="matrix(0.687747 -0.72595 0.656461 0.75436 0.367676 19.772)" fill="#1FF00D"/>
<rect width="5.11205" height="5.11205" transform="matrix(0.687747 -0.72595 0.656461 0.75436 0.530273 12.0903)" fill="#1FF00D"/>
<rect width="5.11205" height="5.11205" transform="matrix(0.687747 -0.72595 0.656461 0.75436 0.691406 4.44678)" fill="#1FF00D"/>
<path d="M27.1861 11.2194C27.212 9.99624 28.2245 9.0256 29.4477 9.05145L33.8773 9.14507C35.1005 9.17092 36.0712 10.1835 36.0453 11.4067L36.0375 11.7758C36.0332 11.9797 35.8644 12.1415 35.6606 12.1371L35.5375 12.1345C34.9939 12.1231 34.5439 12.5544 34.5324 13.0981V13.0981C34.5209 13.6417 34.9523 14.0918 35.4959 14.1033L35.619 14.1059C35.8228 14.1102 35.9846 14.2789 35.9803 14.4828L35.9725 14.8519C35.9466 16.0751 34.9341 17.0458 33.7109 17.0199L29.2813 16.9263C28.0581 16.9004 27.0874 15.8879 27.1133 14.6647L27.1211 14.2956C27.1254 14.0917 27.2942 13.9299 27.498 13.9342L27.6211 13.9368C28.1647 13.9483 28.6147 13.5169 28.6262 12.9733V12.9733C28.6377 12.4296 28.2063 11.9796 27.6627 11.9681L27.5396 11.9655C27.3358 11.9612 27.174 11.7924 27.1783 11.5886L27.1861 11.2194Z" stroke="black" stroke-width="0.8"/>
<path d="M31.3748 12.3856C31.462 12.1733 31.5057 12.0671 31.5732 12.0537C31.591 12.0502 31.6092 12.0505 31.6268 12.0548C31.6937 12.0711 31.7328 12.179 31.8111 12.3948C31.8556 12.5176 31.8778 12.5789 31.9209 12.6213C31.9331 12.6331 31.9462 12.6438 31.9603 12.653C32.0105 12.6859 32.0739 12.6931 32.2007 12.7076C32.4154 12.7322 32.5227 12.7444 32.5542 12.8088C32.5607 12.8221 32.565 12.8364 32.567 12.8513C32.5764 12.9228 32.4957 12.9957 32.3345 13.1417L32.2897 13.1822C32.2143 13.2504 32.1766 13.2845 32.1543 13.3276C32.1409 13.3535 32.1317 13.3814 32.1271 13.4104C32.1193 13.4586 32.1291 13.5095 32.1486 13.6112L32.1556 13.6475C32.1906 13.8299 32.208 13.9211 32.1829 13.9652C32.1603 14.0048 32.1196 14.0296 32.0753 14.0309C32.026 14.0323 31.9577 13.9721 31.8213 13.8517C31.7314 13.7723 31.6864 13.7327 31.636 13.7165C31.5898 13.7017 31.5406 13.7006 31.4939 13.7135C31.4427 13.7275 31.3962 13.7652 31.303 13.8407C31.1616 13.9553 31.0909 14.0125 31.0416 14.009C30.9974 14.0059 30.9579 13.9794 30.9369 13.9389C30.9137 13.8937 30.935 13.8034 30.9776 13.6226L30.9861 13.5866C31.0099 13.4858 31.0218 13.4354 31.0161 13.3869C31.0127 13.3578 31.0047 13.3295 30.9924 13.3031C30.972 13.2591 30.9358 13.2234 30.8633 13.1521L30.8203 13.1097C30.6653 12.9571 30.5879 12.8808 30.6002 12.8097C30.6028 12.795 30.6077 12.7808 30.6148 12.7678C30.649 12.7048 30.7567 12.6971 30.9722 12.6817C31.0995 12.6726 31.1632 12.668 31.2147 12.6372C31.2292 12.6286 31.2428 12.6186 31.2554 12.6072C31.3003 12.5667 31.3251 12.5064 31.3748 12.3856Z" fill="black"/>
<path d="M45.5913 10.6011C46.1012 10.61 46.4998 10.6971 46.7869 10.8621C47.0842 11.0174 47.3057 11.2213 47.4513 11.4739C47.6071 11.7166 47.7022 11.9934 47.7368 12.304C47.7713 12.6147 47.786 12.92 47.7807 13.2199L47.7086 17.3293L46.1788 17.3024L46.2509 13.1931C46.2597 12.6931 46.2157 12.3523 46.1189 12.1706C46.022 11.9889 45.8386 11.8956 45.5687 11.8909L44.5707 12.3384L43.574 11.8559C43.314 11.8513 43.1325 11.9381 43.0293 12.1164C42.9362 12.2948 42.8852 12.6339 42.8765 13.1338L42.8222 16.2234C43.2937 16.1416 43.5929 15.9068 43.7197 15.519C43.8567 15.1213 43.8962 14.582 43.8381 13.9008L45.2479 13.9256C45.2979 14.4965 45.284 15.0014 45.2063 15.4401C45.1386 15.879 44.9772 16.2462 44.7219 16.5418C44.4769 16.8275 44.1332 17.0365 43.6908 17.1688C43.2486 17.291 42.6829 17.3211 41.9939 17.259C41.7943 17.2355 41.6199 17.1974 41.4708 17.1448C41.3317 17.0923 41.2632 17.0111 41.2651 16.9011L41.3317 13.1067C41.337 12.8068 41.3623 12.5022 41.4077 12.1929C41.4632 11.8838 41.568 11.6106 41.7222 11.3733C41.8765 11.126 42.1 10.9299 42.3926 10.785C42.6954 10.6303 43.0967 10.5573 43.5966 10.5661L44.5933 11.0486L45.5913 10.6011ZM43.2428 7.36438L45.5525 7.40492L45.5464 7.74987L45.2922 8.55553L48.1718 8.60607L48.1513 9.77589L43.7869 9.69929L44.1382 8.49027L43.2234 8.47421L43.2428 7.36438ZM51.7205 10.7087C52.2004 10.7171 52.649 10.8 53.0663 10.9573C53.4836 11.1147 53.8447 11.3411 54.1495 11.6364C54.4644 11.932 54.7081 12.2913 54.8807 12.7144C55.0633 13.1377 55.1499 13.6193 55.1404 14.1592C55.1316 14.6591 55.0436 15.1177 54.8762 15.5348C54.7191 15.9421 54.4929 16.2932 54.1977 16.5881C53.9026 16.8729 53.5437 17.0917 53.121 17.2443C52.6982 17.3969 52.2269 17.4686 51.707 17.4595C51.2071 17.4507 50.7088 17.3469 50.2122 17.1482C49.7258 16.9396 49.3411 16.6328 49.0582 16.2278L49.104 13.6182L51.6086 13.6622L51.5878 14.847L50.553 14.8288L50.5351 15.8487C50.7031 15.9616 50.9018 16.0401 51.131 16.0842C51.3705 16.1184 51.5751 16.142 51.7449 16.1549C52.3043 16.1948 52.7573 16.0277 53.1039 15.6537C53.4505 15.2797 53.6294 14.7728 53.6407 14.1329C53.6512 13.533 53.4898 13.0401 53.1565 12.6542C52.8234 12.2583 52.3369 12.0547 51.697 12.0435C51.3471 12.0373 50.9961 12.0912 50.644 12.205C50.3021 12.309 50.0095 12.4589 49.766 12.6547L48.9424 11.7101C49.2373 11.4352 49.6116 11.1967 50.0652 10.9947C50.5288 10.7928 51.0806 10.6974 51.7205 10.7087ZM58.7478 10.832C59.4077 10.8436 59.9407 10.963 60.3468 11.1901C60.763 11.4075 61.0831 11.6881 61.3071 12.0321C61.5413 12.3663 61.6998 12.7391 61.7826 13.1506C61.8656 13.5522 61.9037 13.9429 61.897 14.3228C61.8897 14.7428 61.8176 15.1466 61.6807 15.5342C61.5439 15.9219 61.3378 16.2683 61.0624 16.5735C60.7872 16.8687 60.433 17.1026 59.9999 17.275C59.5768 17.4476 59.0753 17.5288 58.4954 17.5186L57.7605 17.5057L55.8332 13.6313L57.408 13.6589L58.6686 16.2015C58.9087 16.1957 59.1294 16.1595 59.3306 16.0931C59.5418 16.0268 59.7237 15.9199 59.8763 15.7726C60.0289 15.6252 60.1473 15.4323 60.2315 15.1937C60.3157 14.9552 60.3609 14.6559 60.3673 14.296C60.3711 14.076 60.3552 13.8457 60.3194 13.605C60.2938 13.3545 60.2228 13.1233 60.1065 12.9112C60.0002 12.6993 59.8382 12.5264 59.6206 12.3926C59.403 12.2487 59.1043 12.1735 58.7244 12.1668C58.5844 12.1644 58.4392 12.1768 58.2887 12.2042C58.1382 12.2315 57.9973 12.2791 57.8661 12.3468L57.2433 11.0757C57.4647 10.9995 57.7058 10.9387 57.9666 10.8933C58.2274 10.8479 58.4878 10.8275 58.7478 10.832ZM66.1596 10.9621C66.7995 10.9733 67.3275 11.0926 67.7436 11.32C68.1598 11.5373 68.485 11.8131 68.7192 12.1472C68.9535 12.4714 69.1124 12.8242 69.1957 13.2057C69.2892 13.5774 69.3331 13.9233 69.3275 14.2432L69.2667 17.7077L67.7219 17.6806L67.783 14.2011C67.7874 13.9511 67.7616 13.7106 67.7057 13.4796C67.6497 13.2486 67.5582 13.047 67.4312 12.8747C67.3042 12.7025 67.1316 12.5644 66.9134 12.4606C66.6952 12.3567 66.4311 12.3021 66.1212 12.2966C65.9412 12.2935 65.7457 12.3201 65.5347 12.3764C65.3337 12.4328 65.1419 12.5295 64.9595 12.6663C64.7871 12.8033 64.6388 12.9857 64.5148 13.2136C64.4008 13.4416 64.3408 13.7256 64.3348 14.0656L65.1568 14.245L65.0973 17.6345L63.5526 17.6074L63.5994 14.9378L62.8374 14.7594L62.8488 14.1145C62.8558 13.7146 62.9276 13.3258 63.0643 12.9481C63.2011 12.5604 63.4071 12.219 63.6823 11.9238C63.9576 11.6286 64.2967 11.3945 64.6998 11.2215C65.1131 11.0388 65.5997 10.9523 66.1596 10.9621ZM73.6122 17.784L73.6801 13.9145C73.6862 13.5646 73.646 13.2889 73.5596 13.0873C73.4731 12.8858 73.3607 12.7338 73.2225 12.6313C73.0943 12.5291 72.9554 12.4666 72.8057 12.444C72.6663 12.4115 72.5416 12.3943 72.4316 12.3924C72.1816 12.388 71.9257 12.4385 71.6638 12.544C71.4021 12.6394 71.1595 12.7851 70.936 12.9812L70.1412 12.1122C70.4364 11.8173 70.7908 11.5685 71.2044 11.3657C71.628 11.1631 72.0648 11.0658 72.5147 11.0737C73.0847 11.0837 73.5431 11.1767 73.8901 11.3528C74.247 11.5291 74.523 11.759 74.7181 12.0425C74.9233 12.3161 75.0579 12.6235 75.122 12.9647C75.196 13.3061 75.23 13.6467 75.224 13.9867L75.1569 17.8111L73.6122 17.784ZM80.9518 12.947C80.7149 12.7728 80.4419 12.653 80.133 12.5876C79.8343 12.5123 79.535 12.4721 79.235 12.4668C79.125 12.4649 78.9999 12.4727 78.8595 12.4902C78.7194 12.4978 78.584 12.5204 78.4533 12.5581C78.3326 12.596 78.2265 12.6591 78.1349 12.7475C78.0435 12.826 77.9967 12.9301 77.9944 13.0601C77.9921 13.1901 78.0352 13.3009 78.1236 13.3924C78.2222 13.4742 78.3409 13.5463 78.4798 13.6087C78.6289 13.6614 78.7782 13.704 78.9277 13.7366C79.0871 13.7694 79.2267 13.7969 79.3463 13.819C79.6652 13.8846 79.9738 13.965 80.2722 14.0603C80.5806 14.1557 80.8483 14.2904 81.0752 14.4644C81.3124 14.6286 81.4988 14.8319 81.6346 15.0743C81.7804 15.3169 81.8501 15.6182 81.8438 15.9781C81.8375 16.3381 81.747 16.6465 81.5725 16.9035C81.3981 17.1505 81.1746 17.3516 80.9018 17.5068C80.639 17.6622 80.347 17.7771 80.0256 17.8515C79.7045 17.9159 79.3889 17.9454 79.0789 17.9399C78.819 17.9354 78.5544 17.9107 78.2851 17.866C78.026 17.8114 77.7724 17.732 77.5242 17.6276C77.2761 17.5132 77.0435 17.3741 76.8264 17.2103C76.6094 17.0364 76.4229 16.8331 76.267 16.6004L77.1221 15.7452C77.3674 16.0196 77.6737 16.23 78.0412 16.3765C78.4087 16.5229 78.7624 16.5992 79.1024 16.6051C79.2223 16.6072 79.3574 16.6046 79.5076 16.5972C79.6579 16.5799 79.7984 16.5523 79.9291 16.5146C80.0699 16.4671 80.1861 16.3991 80.2777 16.3107C80.3693 16.2223 80.4164 16.1031 80.419 15.9531C80.4216 15.8031 80.3788 15.6774 80.2906 15.5758C80.2026 15.4643 80.0891 15.3772 79.9501 15.3148C79.8214 15.2425 79.6773 15.19 79.5178 15.1572C79.3586 15.1144 79.2141 15.0818 79.0845 15.0596C78.7854 15.0043 78.4815 14.939 78.1728 14.8635C77.8742 14.7783 77.6012 14.6635 77.3537 14.5191C77.1162 14.3749 76.9195 14.1864 76.7635 13.9537C76.6076 13.7209 76.533 13.4145 76.5396 13.0346C76.5454 12.7046 76.6354 12.4212 76.8096 12.1842C76.9838 11.9472 77.2022 11.756 77.4648 11.6106C77.7275 11.4552 78.0145 11.3452 78.3257 11.2807C78.6469 11.2163 78.9524 11.1867 79.2424 11.1917C79.5223 11.1967 79.777 11.2161 80.0065 11.2502C80.2359 11.2842 80.455 11.338 80.6637 11.4117C80.8725 11.4854 81.0708 11.5839 81.2586 11.7072C81.4565 11.8307 81.6538 11.9842 81.8507 12.1677L80.9518 12.947ZM88.7593 11.3888L88.6953 15.0332C88.6901 15.3332 88.6593 15.6627 88.603 16.0218C88.5567 16.381 88.4358 16.7139 88.2404 17.0205C88.0551 17.3173 87.7707 17.5674 87.3871 17.7707C87.0135 17.9742 86.4917 18.07 85.8218 18.0583C85.1619 18.0467 84.6436 17.9426 84.267 17.7459C83.9006 17.5395 83.6247 17.3046 83.4393 17.0413C83.254 16.768 83.1389 16.4909 83.0938 16.2101C83.0489 15.9193 83.028 15.6839 83.0312 15.5039C83.0379 15.124 83.1082 14.8201 83.2422 14.5925C83.3864 14.355 83.545 14.1527 83.7179 13.9857C83.8909 13.8187 84.0487 13.6615 84.1913 13.514C84.3441 13.3566 84.4325 13.1631 84.4565 12.9335C84.4678 12.8637 84.4442 12.7783 84.386 12.6772C84.3378 12.5764 84.2287 12.5245 84.0587 12.5215C83.9087 12.5188 83.7784 12.5366 83.6677 12.5746C83.5672 12.6029 83.4562 12.6559 83.3349 12.7338L82.7984 11.6742C82.971 11.5272 83.1878 11.426 83.4488 11.3706C83.71 11.3052 83.9856 11.275 84.2755 11.2801C84.4655 11.2834 84.6599 11.3168 84.8588 11.3803C85.0578 11.4438 85.2361 11.542 85.3938 11.6748C85.5516 11.7976 85.6738 11.9597 85.7603 12.1613C85.8569 12.353 85.893 12.5787 85.8684 12.8383C85.8218 13.2175 85.7266 13.5109 85.5829 13.7184C85.4493 13.9261 85.306 14.1086 85.1533 14.2659C85.0105 14.4235 84.8775 14.5912 84.7544 14.769C84.6412 14.9471 84.5818 15.1961 84.5762 15.516C84.5739 15.646 84.5865 15.7862 84.6138 15.9367C84.6414 16.0772 84.6991 16.2083 84.787 16.3298C84.8749 16.4514 85.0031 16.5537 85.1716 16.6366C85.3402 16.7196 85.5645 16.7635 85.8444 16.7685C86.1644 16.7741 86.4103 16.7234 86.5822 16.6164C86.7541 16.5094 86.8816 16.3716 86.9645 16.203C87.0477 16.0245 87.0961 15.8303 87.1098 15.6205C87.1335 15.4109 87.1471 15.2011 87.1508 14.9911L87.2145 11.3617L88.7593 11.3888ZM92.9891 18.1241L93.057 14.2547C93.0631 13.9047 93.0229 13.629 92.9365 13.4274C92.85 13.2259 92.7376 13.0739 92.5994 12.9714C92.4712 12.8692 92.3323 12.8067 92.1826 12.7841C92.0432 12.7516 91.9185 12.7344 91.8085 12.7325C91.5585 12.7281 91.3026 12.7786 91.0407 12.8841C90.779 12.9795 90.5364 13.1252 90.3129 13.3214L89.5181 12.4523C89.8133 12.1574 90.1677 11.9086 90.5813 11.7058C91.0049 11.5032 91.4417 11.4059 91.8916 11.4138C92.4616 11.4238 92.92 11.5168 93.267 11.6929C93.6239 11.8692 93.8999 12.0991 94.095 12.3826C94.3002 12.6562 94.4348 12.9636 94.4989 13.3048C94.5729 13.6462 94.6069 13.9868 94.6009 14.3268L94.5338 18.1512L92.9891 18.1241ZM101.858 11.6187L101.792 15.3981C101.787 15.6581 101.752 15.9575 101.686 16.2964C101.63 16.6355 101.5 16.9532 101.294 17.2497C101.099 17.5463 100.81 17.7963 100.426 17.9996C100.052 18.203 99.5457 18.2991 98.9058 18.2879C98.6558 18.2835 98.3712 18.2585 98.0519 18.2129C97.7325 18.1773 97.4238 18.1019 97.1258 17.9866C96.8278 17.8714 96.5605 17.7117 96.3241 17.5075C96.0976 17.3035 95.9474 17.0308 95.8733 16.6895C95.8365 16.5088 95.8248 16.3185 95.8384 16.1188C95.852 15.909 95.9055 15.7099 95.9989 15.5215C96.0922 15.3331 96.2252 15.1604 96.398 15.0034C96.5708 14.8464 96.798 14.7254 97.0795 14.6403C96.6608 14.5629 96.3488 14.3874 96.1436 14.1138C95.9485 13.8303 95.8641 13.5138 95.8902 13.1642C95.9051 12.8844 95.9748 12.6206 96.0991 12.3728C96.2235 12.1249 96.412 11.9282 96.6646 11.7826C96.9273 11.6272 97.2589 11.543 97.6592 11.53C98.0596 11.507 98.5432 11.5905 99.11 11.7805L98.4901 12.9098C98.3408 12.8672 98.1913 12.8395 98.0415 12.8269C97.8917 12.8143 97.7614 12.827 97.6507 12.8651C97.5401 12.9031 97.4539 12.9666 97.3924 13.0556C97.3308 13.1445 97.3137 13.2642 97.341 13.4147C97.3584 13.565 97.4063 13.6859 97.4847 13.7773C97.5733 13.8589 97.6721 13.9256 97.7812 13.9775C97.8905 14.0194 98.0101 14.0465 98.1399 14.0588C98.2697 14.0711 98.3896 14.0782 98.4995 14.0801L99.1594 14.0917L99.1389 15.2615L98.389 15.2484C98.249 15.2459 98.1137 15.2636 97.983 15.3013C97.8625 15.3292 97.7516 15.3822 97.6502 15.4604C97.549 15.5287 97.4723 15.6223 97.4202 15.7415C97.3781 15.8607 97.3706 16.0056 97.3976 16.1761C97.4243 16.3666 97.4966 16.5179 97.6147 16.63C97.7429 16.7323 97.8815 16.8097 98.0306 16.8623C98.1899 16.9051 98.3495 16.9329 98.5093 16.9458C98.6692 16.9486 98.8092 16.951 98.9292 16.9531C99.2391 16.9586 99.485 16.9129 99.6667 16.816C99.8486 16.7092 99.981 16.5715 100.064 16.403C100.147 16.2344 100.2 16.0503 100.224 15.8507C100.247 15.6411 100.261 15.4313 100.265 15.2213L100.328 11.5919L101.858 11.6187ZM106.231 18.4165C105.581 18.4051 105.048 18.3007 104.632 18.1034C104.225 17.9062 103.904 17.6605 103.669 17.3664C103.434 17.0722 103.27 16.7493 103.176 16.3976C103.093 16.036 103.054 15.6953 103.059 15.3754L103.125 11.6409L104.67 11.668L104.604 15.3875C104.595 15.8974 104.718 16.3046 104.973 16.6091C105.228 16.9136 105.655 17.0712 106.255 17.0817C106.855 17.0922 107.287 16.9498 107.552 16.6544C107.828 16.3592 107.97 15.9566 107.979 15.4467L108.044 11.7273L109.574 11.7541L109.508 15.4886C109.503 15.8085 109.447 16.1476 109.34 16.5058C109.244 16.8541 109.074 17.1712 108.829 17.4569C108.584 17.7427 108.249 17.9768 107.826 18.1594C107.403 18.342 106.871 18.4277 106.231 18.4165ZM106.827 9.00549C106.802 9.2851 106.874 9.46139 107.042 9.53436C107.211 9.60733 107.465 9.6468 107.805 9.65277L110.385 9.69805L110.365 10.8679L106.99 10.8086C106.76 10.8046 106.546 10.7658 106.347 10.6923C106.138 10.6187 105.96 10.5155 105.812 10.3829C105.655 10.2501 105.537 10.088 105.461 9.89666C105.384 9.69529 105.358 9.4698 105.383 9.22019L106.647 9.00233L106.827 9.00549ZM115.044 11.8201C115.553 11.8291 115.952 11.9161 116.239 12.0812C116.536 12.2364 116.758 12.4403 116.903 12.6929C117.059 12.9357 117.154 13.2124 117.189 13.523C117.224 13.8337 117.238 14.139 117.233 14.439L117.161 18.5483L115.631 18.5215L115.703 14.4121C115.712 13.9122 115.668 13.5714 115.571 13.3896C115.474 13.2079 115.291 13.1147 115.021 13.1099L114.023 13.5575L113.026 13.0749C112.766 13.0704 112.585 13.1572 112.482 13.3354C112.388 13.5138 112.337 13.853 112.329 14.3529L112.274 17.4424C112.746 17.3607 113.045 17.1259 113.172 16.738C113.309 16.3404 113.348 15.801 113.29 15.1199L114.7 15.1446C114.75 15.7156 114.736 16.2204 114.659 16.6591C114.591 17.098 114.429 17.4652 114.174 17.7608C113.929 18.0465 113.585 18.2555 113.143 18.3878C112.701 18.51 112.135 18.5401 111.446 18.478C111.246 18.4545 111.072 18.4164 110.923 18.3638C110.784 18.3114 110.715 18.2302 110.717 18.1202L110.784 14.3258C110.789 14.0258 110.814 13.7212 110.86 13.412C110.915 13.1029 111.02 12.8297 111.174 12.5923C111.329 12.345 111.552 12.1489 111.845 12.004C112.148 11.8493 112.549 11.7763 113.049 11.7851L114.046 12.2677L115.044 11.8201ZM122.957 13.6843C122.72 13.5101 122.447 13.3903 122.138 13.3249C121.84 13.2496 121.54 13.2094 121.24 13.2041C121.13 13.2022 121.005 13.21 120.865 13.2275C120.725 13.235 120.589 13.2577 120.459 13.2954C120.338 13.3333 120.232 13.3964 120.14 13.4848C120.049 13.5632 120.002 13.6674 120 13.7974C119.997 13.9274 120.04 14.0382 120.129 14.1297C120.227 14.2115 120.346 14.2836 120.485 14.346C120.634 14.3986 120.783 14.4413 120.933 14.4739C121.092 14.5067 121.232 14.5341 121.352 14.5563C121.67 14.6219 121.979 14.7023 122.277 14.7975C122.586 14.893 122.853 15.0277 123.08 15.2017C123.318 15.3659 123.504 15.5692 123.64 15.8116C123.786 16.0542 123.855 16.3555 123.849 16.7154C123.843 17.0754 123.752 17.3838 123.578 17.6408C123.403 17.8878 123.18 18.0889 122.907 18.2441C122.644 18.3995 122.352 18.5144 122.031 18.5888C121.71 18.6532 121.394 18.6826 121.084 18.6772C120.824 18.6726 120.56 18.648 120.29 18.6033C120.031 18.5487 119.778 18.4692 119.529 18.3649C119.281 18.2505 119.049 18.1114 118.832 17.9476C118.615 17.7737 118.428 17.5704 118.272 17.3376L119.127 16.4825C119.373 16.7569 119.679 16.9673 120.046 17.1137C120.414 17.2602 120.768 17.3364 121.108 17.3424C121.228 17.3445 121.363 17.3419 121.513 17.3345C121.663 17.3171 121.804 17.2896 121.934 17.2519C122.075 17.2044 122.191 17.1364 122.283 17.048C122.375 16.9596 122.422 16.8404 122.424 16.6904C122.427 16.5404 122.384 16.4147 122.296 16.3131C122.208 16.2015 122.094 16.1145 121.955 16.0521C121.827 15.9798 121.683 15.9273 121.523 15.8945C121.364 15.8517 121.219 15.8191 121.09 15.7968C120.791 15.7416 120.487 15.6762 120.178 15.6008C119.879 15.5156 119.606 15.4008 119.359 15.2564C119.121 15.1122 118.925 14.9237 118.769 14.6909C118.613 14.4582 118.538 14.1518 118.545 13.7719C118.551 13.4419 118.641 13.1585 118.815 12.9215C118.989 12.6845 119.207 12.4933 119.47 12.3479C119.733 12.1925 120.02 12.0825 120.331 12.018C120.652 11.9536 120.958 11.9239 121.248 11.929C121.528 11.9339 121.782 11.9534 122.012 11.9874C122.241 12.0215 122.46 12.0753 122.669 12.149C122.878 12.2227 123.076 12.3212 123.264 12.4445C123.462 12.568 123.659 12.7215 123.856 12.9049L122.957 13.6843ZM125.442 16.2033L125.373 11.5814L127.083 11.6114L126.852 16.228L125.442 16.2033ZM126.14 16.6056C126.43 16.6107 126.673 16.72 126.87 16.9335C127.076 17.1371 127.177 17.3839 127.172 17.6739C127.167 17.9638 127.057 18.2119 126.844 18.4182C126.64 18.6247 126.393 18.7254 126.103 18.7203C125.813 18.7152 125.565 18.6058 125.359 18.3922C125.152 18.1785 125.052 17.9267 125.057 17.6368C125.062 17.3468 125.171 17.1037 125.385 16.9074C125.598 16.7011 125.85 16.6005 126.14 16.6056Z" fill="black"/>
</svg>
